<svg width="290" height="54" viewBox="0 0 290 54" fill="none" xmlns="http://www.w3.org/2000/svg">
<path opacity="0.05" d="M169 26.8967C169 40.8667 158.211 52.1098 145 52.1098C131.789 52.1098 121 40.8667 121 26.8967C121 12.9267 131.789 1.68359 145 1.68359C158.211 1.68359 169 12.9267 169 26.8967Z" stroke="white" stroke-width="2"/>
<path opacity="0.05" d="M229 26.8967C229 40.8667 218.211 52.1098 205 52.1098C191.789 52.1098 181 40.8667 181 26.8967C181 12.9267 191.789 1.68359 205 1.68359C218.211 1.68359 229 12.9267 229 26.8967Z" stroke="white" stroke-width="2"/>
<path d="M216.761 30.8002C216.761 30.8002 216.527 32.4549 215.805 33.1814C214.891 34.1377 213.869 34.1424 213.4 34.1986C210.044 34.4424 205.005 34.4424 205.005 34.4424H204.995C204.995 34.4424 199.956 34.4424 196.6 34.1986C196.131 34.1424 195.109 34.1377 194.195 33.1814C193.473 32.4549 193.244 30.8002 193.244 30.8002C193.244 30.8002 193 28.8549 193 26.9143V25.0955C193 23.1549 193.239 21.2096 193.239 21.2096C193.239 21.2096 193.473 19.5549 194.191 18.8283C195.105 17.8721 196.305 17.9049 196.839 17.8018C198.761 17.6189 205 17.5627 205 17.5627C205 17.5627 210.044 17.5721 213.4 17.8111C213.869 17.8674 214.891 17.8721 215.805 18.8283C216.527 19.5549 216.761 21.2096 216.761 21.2096C216.761 21.2096 217 23.1502 217 25.0955V26.9143C217 28.8549 216.761 30.8002 216.761 30.8002ZM202.52 22.8877V29.633L209.003 26.2486L202.52 22.8877Z" fill="white"/>
<path opacity="0.05" d="M289 26.8967C289 40.8667 278.211 52.1098 265 52.1098C251.789 52.1098 241 40.8667 241 26.8967C241 12.9267 251.789 1.68359 265 1.68359C278.211 1.68359 289 12.9267 289 26.8967Z" stroke="white" stroke-width="2"/>
<path opacity="0.05" d="M109 26.8967C109 40.8667 98.2107 52.1098 85 52.1098C71.7893 52.1098 61 40.8667 61 26.8967C61 12.9267 71.7893 1.68359 85 1.68359C98.2107 1.68359 109 12.9267 109 26.8967Z" stroke="white" stroke-width="2"/>
<path opacity="0.05" d="M49 26.8967C49 40.8667 38.2107 52.1098 25 52.1098C11.7893 52.1098 1 40.8667 1 26.8967C1 12.9267 11.7893 1.68359 25 1.68359C38.2107 1.68359 49 12.9267 49 26.8967Z" stroke="white" stroke-width="2"/>
<g clip-path="url(#clip0_20_367)">
<path d="M149.938 16H146.399V30.3043C146.399 32.0087 145.038 33.4087 143.344 33.4087C141.65 33.4087 140.289 32.0087 140.289 30.3043C140.289 28.6304 141.62 27.2608 143.254 27.2V23.6087C139.654 23.6695 136.75 26.6217 136.75 30.3043C136.75 34.0174 139.714 37 143.374 37C147.035 37 149.999 33.987 149.999 30.3043V22.9695C151.33 23.9435 152.963 24.5217 154.687 24.5522V20.9609C152.026 20.8696 149.938 18.6783 149.938 16Z" fill="white"/>
</g>
<g clip-path="url(#clip1_20_367)">
<path d="M265 16.8486C259.475 16.8486 255 21.4621 255 27.1521C255 31.7053 257.865 35.5665 261.837 36.9279C262.337 37.0248 262.521 36.7059 262.521 36.4324C262.521 36.1878 262.513 35.5394 262.508 34.6805C259.727 35.3018 259.14 33.2982 259.14 33.2982C258.685 32.109 258.027 31.791 258.027 31.791C257.122 31.1522 258.097 31.1653 258.097 31.1653C259.102 31.237 259.629 32.227 259.629 32.227C260.521 33.8024 261.97 33.3471 262.542 33.0841C262.632 32.4175 262.889 31.964 263.175 31.7062C260.954 31.4484 258.62 30.5624 258.62 26.6148C258.62 25.4902 259.007 24.571 259.649 23.8501C259.537 23.5898 259.199 22.5421 259.737 21.1231C259.737 21.1231 260.574 20.847 262.487 22.1795C263.287 21.9506 264.137 21.837 264.987 21.8317C265.837 21.837 266.687 21.9506 267.487 22.1795C269.387 20.847 270.224 21.1231 270.224 21.1231C270.762 22.5421 270.424 23.5898 270.324 23.8501C270.962 24.571 271.349 25.4902 271.349 26.6148C271.349 30.5729 269.012 31.4441 266.787 31.6975C267.137 32.0068 267.462 32.6385 267.462 33.604C267.462 34.9828 267.449 36.0908 267.449 36.4254C267.449 36.6954 267.624 37.0179 268.137 36.9147C272.137 35.5622 275 31.6983 275 27.1521C275 21.4621 270.522 16.8486 265 16.8486V16.8486Z" fill="white"/>
</g>
<path d="M34.1663 19.0332C33.3683 19.6234 32.4848 20.0748 31.5497 20.3701C31.0478 19.765 30.3808 19.3361 29.6389 19.1415C28.897 18.9468 28.1159 18.9958 27.4014 19.2817C26.6869 19.5677 26.0734 20.0768 25.6438 20.7403C25.2143 21.4038 24.9894 22.1895 24.9997 22.9914V23.8651C23.5352 23.905 22.0841 23.5644 20.7755 22.8738C19.467 22.1832 18.3416 21.164 17.4997 19.907C17.4997 19.907 14.1663 27.7709 21.6663 31.266C19.9501 32.4875 17.9056 33.1 15.833 33.0135C23.333 37.3824 32.4997 33.0135 32.4997 22.9652C32.4989 22.7218 32.4766 22.479 32.433 22.2399C33.2835 21.3605 33.8837 20.2501 34.1663 19.0332V19.0332Z" fill="white"/>
<g clip-path="url(#clip2_20_367)">
<path d="M92.6239 18.9825C91.2217 18.3099 89.7181 17.8143 88.1459 17.5305C88.1173 17.525 88.0887 17.5387 88.0739 17.5661C87.8805 17.9257 87.6663 18.3948 87.5163 18.7635C85.8254 18.4988 84.1431 18.4988 82.4868 18.7635C82.3368 18.3866 82.1148 17.9257 81.9205 17.5661C81.9058 17.5396 81.8772 17.5259 81.8485 17.5305C80.2773 17.8134 78.7736 18.309 77.3705 18.9825C77.3584 18.988 77.348 18.9971 77.3411 19.009C74.4889 23.4637 73.7076 27.8089 74.0909 32.1002C74.0926 32.1212 74.1039 32.1412 74.1195 32.154C76.0013 33.5987 77.8241 34.4758 79.613 35.0572C79.6416 35.0663 79.672 35.0553 79.6902 35.0307C80.1134 34.4265 80.4906 33.7895 80.814 33.1196C80.8331 33.0804 80.8149 33.0338 80.7759 33.0183C80.1775 32.781 79.6078 32.4917 79.0598 32.1631C79.0164 32.1367 79.0129 32.0719 79.0528 32.0408C79.1681 31.9505 79.2835 31.8565 79.3936 31.7616C79.4135 31.7442 79.4413 31.7406 79.4647 31.7515C83.0652 33.4701 86.9631 33.4701 90.521 31.7515C90.5445 31.7397 90.5722 31.7433 90.593 31.7606C90.7032 31.8556 90.8185 31.9505 90.9347 32.0408C90.9746 32.0719 90.972 32.1367 90.9286 32.1631C90.3806 32.4981 89.8108 32.781 89.2116 33.0174C89.1726 33.0329 89.1553 33.0804 89.1744 33.1196C89.5047 33.7886 89.882 34.4256 90.2973 35.0298C90.3147 35.0553 90.3459 35.0663 90.3745 35.0572C92.1721 34.4758 93.9949 33.5987 95.8766 32.154C95.8931 32.1412 95.9035 32.1221 95.9053 32.1011C96.364 27.1398 95.1369 22.8303 92.6525 19.0099C92.6465 18.9971 92.6361 18.988 92.6239 18.9825ZM81.3517 29.4872C80.2677 29.4872 79.3745 28.4468 79.3745 27.1691C79.3745 25.8913 80.2504 24.8509 81.3517 24.8509C82.4616 24.8509 83.3462 25.9005 83.3288 27.1691C83.3288 28.4468 82.453 29.4872 81.3517 29.4872ZM88.6619 29.4872C87.5779 29.4872 86.6847 28.4468 86.6847 27.1691C86.6847 25.8913 87.5606 24.8509 88.6619 24.8509C89.7718 24.8509 90.6563 25.9005 90.639 27.1691C90.639 28.4468 89.7718 29.4872 88.6619 29.4872Z" fill="white"/>
</g>
<defs>
<clipPath id="clip0_20_367">
<rect width="20" height="20.9705" fill="white" transform="translate(135 16.4116)"/>
</clipPath>
<clipPath id="clip1_20_367">
<rect width="20" height="20.9705" fill="white" transform="translate(255 16.4116)"/>
</clipPath>
<clipPath id="clip2_20_367">
<rect width="22" height="23.0675" fill="white" transform="translate(74 15.3628)"/>
</clipPath>
</defs>
</svg>
