<svg width="21" height="24" viewBox="0 0 21 24" fill="none" xmlns="http://www.w3.org/2000/svg">
<path d="M18.3148 12.5682C17.6938 12.6489 17.0618 12.6904 16.4211 12.6904C12.1493 12.6904 8.2699 10.8455 5.40707 7.8415C7.15259 13.0242 11.0661 17.0519 15.9384 18.5964C16.8092 18.8724 17.7107 19.0692 18.636 19.1789C18.7539 19.1929 18.8722 19.2055 18.9909 19.2167L18.9951 19.2103C20.2561 17.3072 21 14.9642 21 12.4302C21 12.2729 20.9971 12.1162 20.9914 11.9604C20.1277 12.2437 19.2332 12.4488 18.3148 12.5682Z" fill="white"/>
<path d="M2.68421 12.4302C2.68421 17.1718 6.18346 21.0155 10.5 21.0155C12.0824 21.0155 13.555 20.4989 14.7857 19.6109C15.7603 20.1055 16.8157 20.4408 17.9241 20.5864C16.024 22.6733 13.3992 23.964 10.5 23.964C4.70101 23.964 0 18.8002 0 12.4302C0 6.06032 4.70101 0.896484 10.5 0.896484C15.6857 0.896484 19.9933 5.02576 20.8465 10.4542C20.0097 10.7603 19.1262 10.9539 18.2106 11.0186C17.5984 6.94788 14.3794 3.84496 10.5 3.84496C6.18346 3.84496 2.68421 7.68872 2.68421 12.4302Z" fill="white"/>
</svg>
